<?xml version="1.0" encoding="UTF-8"?>
<svg xmlns="http://www.w3.org/2000/svg" xmlns:xlink="http://www.w3.org/1999/xlink" width="150px" height="150px" viewBox="0 0 150 150" version="1.1">
<g id="surface1">
<rect x="0" y="0" width="150" height="150" style="fill:rgb(100%,100%,100%);fill-opacity:1;stroke:none;"/>
<path style=" stroke:none;fill-rule:nonzero;fill:rgb(7.058824%,7.058824%,47.058824%);fill-opacity:1;" d="M 50.183594 48.691406 L 20.023438 48.691406 L 20.023438 74.546875 L 50.183594 74.546875 Z M 21.253906 77.972656 L 21.253906 85.941406 L 34.980469 85.941406 L 21.445312 99.066406 L 33.75 99.066406 L 47.300781 85.941406 L 67.339844 85.941406 L 67.339844 77.972656 Z M 67.339844 56.527344 L 67.339844 47.460938 L 56.191406 47.460938 L 56.191406 74.546875 L 67.339844 74.546875 L 67.339844 65.417969 L 74.207031 65.417969 L 74.207031 56.527344 Z M 45.453125 90.792969 L 45.453125 99.066406 L 67.339844 99.066406 L 67.339844 90.792969 Z M 30.144531 56.953125 L 40.0625 56.953125 L 40.0625 66.269531 L 30.144531 66.269531 Z M 30.144531 56.953125 "/>
<path style=" stroke:none;fill-rule:nonzero;fill:rgb(7.058824%,7.058824%,47.058824%);fill-opacity:1;" d="M 78.253906 48.691406 L 78.253906 99.066406 L 108.398438 99.066406 L 108.398438 89.558594 L 89.398438 89.558594 L 89.398438 58.183594 L 108.398438 58.183594 L 108.398438 48.691406 Z M 125.550781 67.558594 L 125.550781 47.460938 L 114.402344 47.460938 L 114.402344 99.066406 L 125.550781 99.066406 L 125.550781 76.449219 L 132.421875 76.449219 L 132.421875 67.558594 Z M 125.550781 67.558594 "/>
</g>
</svg>
