<svg xmlns="http://www.w3.org/2000/svg" width="150" height="150"><path d="M52.484 58.875v20.031h12.57V63.625h8.997v-10.14h-8.996V38.847h-12.57ZM121.465 75.043c0 19.918.023 36.21.058 36.227.028.011 2.856.011 6.286 0l6.226-.016V74.766h9.781V64.625l-4.87-.016-4.876-.02-.023-12.874-.012-12.867h-12.57ZM8.855 59.52V75.62h35.418V43.418H8.855Zm23.063 0v6.246H21.281V53.27h10.637ZM79.121 69.703V94.13l8.875-.035c9.79-.043 12.399-.114 17.652-.485 3.743-.257 7.856-.722 11.606-1.3l1.465-.227-.031-.25c-.063-.691-1.278-10.004-1.301-10.027-.012-.012-.504.05-1.098.144-6.168.977-14.125 1.649-21.066 1.778-1.176.02-2.485.058-2.914.078l-.762.035.012-14.23.023-14.231 10.73-.024 10.727-.015V45.273H79.121ZM16.426 86.617v4.93h8.566c4.715 0 8.57.012 8.57.035 0 .098-.48.969-.816 1.492-1.355 2.078-3.848 3.95-7.125 5.348-2.137.914-5.27 1.793-8.16 2.293-1.309.222-3.664.543-4 .543-.156 0-.25.035-.25.094 0 .046.613 1.39 1.363 2.976.75 1.594 1.735 3.676 2.184 4.64.453.966.832 1.759.832 1.759.02.02 2.035-.243 2.984-.395 3.32-.527 6.805-1.457 9.488-2.52 4.348-1.726 8-4.277 10.497-7.34.207-.257.414-.507.464-.558.07-.078.18.023.567.523.664.84 1.941 2.157 2.89 2.961 4.512 3.829 10.883 6.313 19.075 7.43.906.125 1.113.133 1.164.055.027-.051 1.035-2.176 2.226-4.735 1.473-3.156 2.14-4.656 2.086-4.683-.05-.028-.308-.07-.586-.094-2.25-.223-5.855-.957-8.297-1.691-5.363-1.621-9.39-4.348-11.046-7.5l-.336-.633h16.93V81.69h-49.27Zm0 0" style="stroke:none;fill-rule:nonzero;fill:#13501b;fill-opacity:1"/></svg>