<?xml version="1.0" encoding="UTF-8"?>
<svg xmlns="http://www.w3.org/2000/svg" xmlns:xlink="http://www.w3.org/1999/xlink" width="150px" height="150px" viewBox="0 0 150 150" version="1.1">
<g id="surface1">
<path style=" stroke:none;fill-rule:nonzero;fill:rgb(7.058824%,7.058824%,47.058824%);fill-opacity:1;" d="M 44.226562 43.332031 L 6.839844 43.332031 L 6.839844 75.398438 L 44.226562 75.398438 Z M 8.359375 79.652344 L 8.359375 89.53125 L 25.382812 89.53125 L 8.589844 105.792969 L 23.863281 105.792969 L 40.65625 89.53125 L 65.503906 89.53125 L 65.503906 79.652344 Z M 65.503906 53.058594 L 65.503906 41.8125 L 51.675781 41.8125 L 51.675781 75.398438 L 65.503906 75.398438 L 65.503906 64.074219 L 74.015625 64.074219 L 74.015625 53.058594 Z M 38.375 95.535156 L 38.375 105.792969 L 65.503906 105.792969 L 65.503906 95.535156 Z M 19.378906 53.589844 L 31.691406 53.589844 L 31.691406 65.140625 L 19.378906 65.140625 Z M 19.378906 53.589844 "/>
<path style=" stroke:none;fill-rule:nonzero;fill:rgb(7.058824%,7.058824%,47.058824%);fill-opacity:1;" d="M 79.023438 43.332031 L 79.023438 105.792969 L 116.410156 105.792969 L 116.410156 94.015625 L 92.855469 94.015625 L 92.855469 55.109375 L 116.410156 55.109375 L 116.410156 43.332031 Z M 137.6875 66.734375 L 137.6875 41.8125 L 123.859375 41.8125 L 123.859375 105.792969 L 137.6875 105.792969 L 137.6875 77.753906 L 146.199219 77.753906 L 146.199219 66.734375 Z M 137.6875 66.734375 "/>
</g>
</svg>
