<svg xmlns="http://www.w3.org/2000/svg" width="150" height="150" version="1.0" viewBox="0 0 112.5 112.5"><defs><clipPath id="a"><path d="M53 1.063h7V23h-7Zm0 0"/></clipPath><clipPath id="b"><path d="M77 15h17v18H77Zm0 0"/></clipPath><clipPath id="c"><path d="m88.582 11.383 8.45 8.449-15.84 15.84-8.45-8.45Zm0 0"/></clipPath><clipPath id="d"><path d="m50.16-27.04 86.059 86.063-91.867 91.868-86.063-86.063Zm0 0"/></clipPath><clipPath id="e"><path d="M29 25h36v35H29Zm0 0"/></clipPath><clipPath id="f"><path d="m29.547 48.5 24.441-23.234 10.34 10.882-24.441 23.23Zm0 0"/></clipPath><clipPath id="g"><path d="M27.477 23.746H34V30h-6.523Zm0 0"/></clipPath><clipPath id="h"><path d="M27.477 75H34v15h-6.523Zm0 0"/></clipPath><clipPath id="i"><path d="M78 75h6.973v15H78Zm0 0"/></clipPath><clipPath id="j"><path d="M78 23.746h6.973V30H78Zm0 0"/></clipPath><clipPath id="k"><path d="M49 106h14v4.824H49Zm0 0"/></clipPath><clipPath id="l"><path d="M40.73 61.926h30.614v8.96H40.73Zm0 0"/></clipPath><clipPath id="m"><path d="M85.035 49h22.399v7H85.035Zm0 0"/></clipPath><clipPath id="n"><path d="M76 72h18v18H76Zm0 0"/></clipPath><clipPath id="o"><path d="m97.406 83.52-8.078 8.8-16.5-15.148 8.078-8.8Zm0 0"/></clipPath><clipPath id="p"><path d="m134.156 43.496-82.312 89.652-95.703-87.87 82.312-89.653Zm0 0"/></clipPath><clipPath id="q"><path d="M18 72h18v18H18Zm0 0"/></clipPath><clipPath id="r"><path d="m24.023 93.492-8.449-8.449 15.84-15.836 8.45 8.445Zm0 0"/></clipPath><clipPath id="s"><path d="m62.445 131.914-86.062-86.059 91.87-91.87 86.06 86.062Zm0 0"/></clipPath><clipPath id="t"><path d="M4.563 49H26.96v6H4.563Zm0 0"/></clipPath><clipPath id="u"><path d="M18 15h18v18H18Zm0 0"/></clipPath><clipPath id="v"><path d="m14.895 21.023 8.296-8.593L39.31 27.988l-8.301 8.598Zm0 0"/></clipPath><clipPath id="w"><path d="M-22.848 60.117 61.688-27.44 155.156 62.8l-84.535 87.558Zm0 0"/></clipPath></defs><g clip-path="url(#a)"><path fill="#009cff" d="M56.512 22.863a2.704 2.704 0 0 0 2.703-2.703V3.777a2.704 2.704 0 0 0-5.406 0V20.16a2.704 2.704 0 0 0 2.703 2.703"/></g><g clip-path="url(#b)"><g clip-path="url(#c)"><g clip-path="url(#d)"><path fill="#009cff" d="M77.793 31.43a2.71 2.71 0 0 0 3.828 0l11.582-11.586a2.707 2.707 0 0 0 0-3.824 2.707 2.707 0 0 0-3.824 0L77.793 27.602a2.71 2.71 0 0 0 0 3.828"/></g></g></g><g clip-path="url(#e)"><g clip-path="url(#f)"><path fill="#fff" d="m29.547 48.5 24.437-23.227 10.34 10.88-24.437 23.226Zm0 0"/></g></g><g clip-path="url(#g)"><path fill="#009cff" d="M29.414 29.148a2.28 2.28 0 0 0 1.613.668 2.28 2.28 0 0 0 1.618-.668c.89-.89.89-2.335 0-3.23l-9.786-9.785c-.89-.89-2.34-.89-3.23 0a2.28 2.28 0 0 0 0 3.23z"/></g><g clip-path="url(#h)"><path fill="#009cff" d="m29.414 75.86-9.785 9.78a2.285 2.285 0 1 0 3.23 3.235l9.786-9.785c.89-.895.89-2.34 0-3.23a2.28 2.28 0 0 0-3.23 0"/></g><g clip-path="url(#i)"><path fill="#009cff" d="M82.582 75.86a2.28 2.28 0 0 0-3.23 0c-.891.89-.891 2.335 0 3.23l9.785 9.785a2.28 2.28 0 0 0 1.617.668c.582 0 1.168-.223 1.613-.668.89-.895.89-2.34 0-3.234z"/></g><g clip-path="url(#j)"><path fill="#009cff" d="M80.969 29.816c.582 0 1.168-.222 1.613-.668l9.785-9.785c.89-.89.89-2.336 0-3.23-.89-.89-2.34-.89-3.23 0l-9.785 9.785c-.891.895-.891 2.34 0 3.23a2.28 2.28 0 0 0 1.617.668"/></g><path fill="#009cff" d="M55.996 36.055A16.52 16.52 0 0 0 44.23 40.93a16.54 16.54 0 0 0-4.878 11.77 2.282 2.282 0 1 1-4.567 0c0-2.864.559-5.641 1.668-8.259a21.1 21.1 0 0 1 4.543-6.742 21.2 21.2 0 0 1 6.742-4.547 21.1 21.1 0 0 1 8.258-1.668 2.286 2.286 0 0 1 0 4.57m.43-11.684c-15.297-.234-27.957 12.133-28.067 27.434a27.53 27.53 0 0 0 6.16 17.593c3.454 4.258 5.961 9.207 7.504 14.47 1.45 4.945 3.028 9.816 8.18 9.816h11.59c5.152 0 6.73-4.871 8.18-9.817l.043-.144c1.546-5.282 4.152-10.184 7.59-14.485a27.5 27.5 0 0 0 6.03-17.234c0-15.121-12.144-27.406-27.21-27.633"/><path d="M45.879 95.715h20.234a1.632 1.632 0 1 0 0-3.266H45.88c-.899 0-1.629.73-1.629 1.633 0 .902.73 1.633 1.629 1.633M66.113 97.02H45.88a1.631 1.631 0 0 0 0 3.261h20.234a1.631 1.631 0 1 0 0-3.261M66.113 101.59H45.88a1.63 1.63 0 0 0 0 3.262h20.234a1.632 1.632 0 1 0 0-3.262"/><g clip-path="url(#k)"><path d="M55.996 110.922c3.453 0 6.25-2.102 6.25-4.7H49.75c0 2.598 2.797 4.7 6.246 4.7"/></g><g clip-path="url(#l)"><path d="M70.36 66.902c-2.165 0-3.938-1.789-3.938-3.972 0-.598-.395-.996-.984-.996-.59 0-.985.398-.985.996 0 1.191.395 2.28.984 3.175-1.769 1.094-5.316 2.782-10.828 2.782-8.07 0-12.007-3.676-12.105-3.676a.95.95 0 0 0-1.379 0 .965.965 0 0 0 0 1.39c.195.2 4.527 4.274 13.484 4.274 6.203 0 10.239-1.988 12.11-3.277a5.82 5.82 0 0 0 3.64 1.289c.59 0 .985-.395.985-.992 0-.598-.395-.993-.985-.993m0 0"/></g><g clip-path="url(#m)"><path fill="#009cff" d="M85.633 52.363a2.705 2.705 0 0 0 2.703 2.707h16.383a2.705 2.705 0 0 0 0-5.41H88.336a2.704 2.704 0 0 0-2.703 2.703"/></g><g clip-path="url(#n)"><g clip-path="url(#o)"><g clip-path="url(#p)"><path fill="#009cff" d="M76.922 73.598a2.704 2.704 0 0 0 .16 3.82l12.066 11.078a2.704 2.704 0 1 0 3.66-3.984L80.743 73.434a2.704 2.704 0 0 0-3.82.164"/></g></g></g><g clip-path="url(#q)"><g clip-path="url(#r)"><g clip-path="url(#s)"><path fill="#009cff" d="M34.809 73.45a2.7 2.7 0 0 0-3.825 0L19.402 85.03a2.707 2.707 0 0 0 0 3.824 2.707 2.707 0 0 0 3.825 0l11.582-11.582a2.7 2.7 0 0 0 0-3.824"/></g></g></g><g clip-path="url(#t)"><path fill="#009cff" d="M26.363 52.082a2.704 2.704 0 0 0-2.703-2.703H7.277a2.705 2.705 0 0 0 0 5.41H23.66a2.705 2.705 0 0 0 2.703-2.707"/></g><g clip-path="url(#u)"><g clip-path="url(#v)"><g clip-path="url(#w)"><path fill="#009cff" d="M35.125 31.46a2.703 2.703 0 0 0-.066-3.823l-11.786-11.38a2.703 2.703 0 1 0-3.757 3.891L31.3 31.528a2.707 2.707 0 0 0 3.824-.067"/></g></g></g></svg>