<?xml version="1.0" standalone="no"?>
<!DOCTYPE svg PUBLIC "-//W3C//DTD SVG 20010904//EN"
 "http://www.w3.org/TR/2001/REC-SVG-20010904/DTD/svg10.dtd">
<svg version="1.0" xmlns="http://www.w3.org/2000/svg"
 width="150.000000pt" height="150.000000pt" viewBox="0 0 2095.000000 2095.000000"
 preserveAspectRatio="xMidYMid meet">

<g transform="translate(0.000000,2095.000000) scale(0.100000,-0.100000)"
fill="#13501B" stroke="none">
<path d="M7350 12705 l0 -2805 880 0 880 0 0 1070 0 1070 630 0 630 0 0 710 0
710 -630 0 -630 0 0 1025 0 1025 -880 0 -880 0 0 -2805z"/>
<path d="M17010 10441 c0 -2789 3 -5071 8 -5073 4 -2 400 -2 880 0 l872 2 0
2555 0 2555 685 0 685 0 0 710 0 710 -682 2 -683 3 -3 1803 -2 1802 -880 0
-880 0 0 -5069z"/>
<path d="M1240 12615 l0 -2255 2480 0 2480 0 0 2255 0 2255 -2480 0 -2480 0 0
-2255z m3230 0 l0 -875 -745 0 -745 0 0 875 0 875 745 0 745 0 0 -875z"/>
<path d="M11080 11189 l0 -3421 1243 5 c1371 6 1736 16 2472 68 524 36 1100
101 1625 182 l205 32 -4 35 c-9 97 -179 1401 -182 1404 -2 2 -71 -7 -154 -20
-864 -137 -1978 -231 -2950 -249 -165 -3 -348 -8 -408 -11 l-107 -5 2 1993 3
1993 1503 3 1502 2 0 705 0 705 -2375 0 -2375 0 0 -3421z"/>
<path d="M2300 8820 l0 -690 1200 0 c660 0 1200 -2 1200 -5 0 -14 -67 -136
-114 -209 -190 -291 -539 -553 -998 -749 -299 -128 -738 -251 -1143 -321 -183
-31 -513 -76 -560 -76 -22 0 -35 -5 -35 -13 0 -7 86 -195 191 -417 105 -223
243 -515 306 -650 63 -135 116 -246 116 -246 3 -3 285 34 418 55 465 74 953
204 1329 353 609 242 1120 599 1470 1028 29 36 58 71 65 78 10 11 25 -3 79
-73 93 -118 272 -302 405 -415 632 -536 1524 -884 2671 -1040 127 -18 156 -19
163 -8 4 7 145 305 312 663 206 442 300 652 292 656 -7 4 -43 10 -82 13 -315
31 -820 134 -1162 237 -751 227 -1315 609 -1547 1050 l-47 89 1185 0 1186 0 0
690 0 690 -3450 0 -3450 0 0 -690z"/>
</g>
</svg>
