<svg xmlns="http://www.w3.org/2000/svg" width="150" height="150"><defs><clipPath id="a"><path d="M45.117 36.953h59.766v59.785H45.117Zm0 0"/></clipPath><clipPath id="b"><path d="M75 36.953c-16.504 0-29.883 13.379-29.883 29.883S58.497 96.738 75 96.738c16.504 0 29.883-13.398 29.883-29.902S91.503 36.953 75 36.953m0 0"/></clipPath><clipPath id="c"><path d="M72 8.32h6V30h-6Zm0 0"/></clipPath><clipPath id="d"><path d="M14.824 65H37v7H14.824Zm0 0"/></clipPath><clipPath id="e"><path d="M113 65h21.59v7H113Zm0 0"/></clipPath><clipPath id="f"><path d="M67 131h16v4.332H67Zm0 0"/></clipPath><clipPath id="g"><path d="M59.082 80.176h32.656v10.879H59.082Zm0 0"/></clipPath></defs><g clip-path="url(#a)"><g clip-path="url(#b)"><path d="M45.117 36.953h59.766v59.785H45.117Zm0 0" style="stroke:none;fill-rule:nonzero;fill:#fff;fill-opacity:1"/></g></g><g clip-path="url(#c)"><path d="M75 29.844a2.663 2.663 0 0 0 2.656-2.676V10.996A2.663 2.663 0 0 0 75 8.32a2.667 2.667 0 0 0-2.676 2.676v16.172A2.667 2.667 0 0 0 75 29.844" style="stroke:none;fill-rule:nonzero;fill:#009cff;fill-opacity:1"/></g><path d="M43.906 41.152a2.58 2.58 0 0 0 1.875.782 2.66 2.66 0 0 0 1.895-.782 2.64 2.64 0 0 0 0-3.77L36.23 25.939a2.64 2.64 0 0 0-3.77 0 2.64 2.64 0 0 0 0 3.769z" style="stroke:none;fill-rule:nonzero;fill:#009cff;fill-opacity:1"/><g clip-path="url(#d)"><path d="M36.367 68.477a2.667 2.667 0 0 0-2.676-2.676H17.5a2.68 2.68 0 0 0-2.676 2.676 2.693 2.693 0 0 0 2.676 2.675h16.191a2.68 2.68 0 0 0 2.676-2.675" style="stroke:none;fill-rule:nonzero;fill:#009cff;fill-opacity:1"/></g><path d="m43.906 95.8-11.445 11.446a2.64 2.64 0 0 0 0 3.77 2.58 2.58 0 0 0 1.875.78 2.66 2.66 0 0 0 1.894-.78L47.676 99.57a2.64 2.64 0 0 0 0-3.77 2.64 2.64 0 0 0-3.77 0m62.188 0a2.664 2.664 0 0 0-3.79 0 2.676 2.676 0 0 0 0 3.77l11.446 11.446a2.66 2.66 0 0 0 1.895.78 2.66 2.66 0 0 0 1.894-.78 2.676 2.676 0 0 0 0-3.77z" style="stroke:none;fill-rule:nonzero;fill:#009cff;fill-opacity:1"/><g clip-path="url(#e)"><path d="M132.48 65.8h-16.19a2.663 2.663 0 0 0-2.657 2.677c0 1.464 1.191 2.675 2.656 2.675h16.191a2.68 2.68 0 0 0 2.676-2.675 2.667 2.667 0 0 0-2.676-2.676" style="stroke:none;fill-rule:nonzero;fill:#009cff;fill-opacity:1"/></g><path d="M104.2 41.934a2.66 2.66 0 0 0 1.894-.782l11.445-11.445a2.676 2.676 0 0 0 0-3.77 2.664 2.664 0 0 0-3.789 0l-11.445 11.446a2.676 2.676 0 0 0 0 3.77 2.66 2.66 0 0 0 1.894.78M75 49.238a19.34 19.34 0 0 0-13.77 5.703 19.34 19.34 0 0 0-5.703 13.77 2.663 2.663 0 0 1-2.675 2.656c-1.465 0-2.676-1.191-2.676-2.656 0-3.36.664-6.602 1.953-9.668a25.1 25.1 0 0 1 5.312-7.89 25.1 25.1 0 0 1 7.891-5.313A24.8 24.8 0 0 1 75 43.887c1.465 0 2.656 1.21 2.656 2.675A2.663 2.663 0 0 1 75 49.239m.488-13.672c-17.89-.273-32.695 14.2-32.812 32.09a32.22 32.22 0 0 0 7.187 20.586c4.043 4.98 6.973 10.762 8.79 16.914 1.699 5.781 3.535 11.485 9.57 11.485h13.554c6.016 0 7.871-5.704 9.551-11.485l.059-.156c1.816-6.191 4.863-11.914 8.886-16.953a32.2 32.2 0 0 0 7.051-20.156c0-17.676-14.199-32.051-31.836-32.325" style="stroke:none;fill-rule:nonzero;fill:#009cff;fill-opacity:1"/><path d="M63.164 119.023h23.672a1.9 1.9 0 0 0 1.894-1.914 1.9 1.9 0 0 0-1.894-1.914H63.164c-1.055 0-1.914.86-1.914 1.914 0 1.055.86 1.914 1.914 1.914m23.672 1.524H63.164c-1.055 0-1.914.86-1.914 1.914a1.9 1.9 0 0 0 1.914 1.894h23.672c1.055 0 1.894-.84 1.894-1.894a1.9 1.9 0 0 0-1.894-1.914m0 5.332H63.164c-1.055 0-1.914.86-1.914 1.914 0 1.055.86 1.914 1.914 1.914h23.672a1.9 1.9 0 0 0 1.894-1.914 1.9 1.9 0 0 0-1.894-1.914" style="stroke:none;fill-rule:nonzero;fill:#202020;fill-opacity:1"/><g clip-path="url(#f)"><path d="M75 136.797c4.023 0 7.305-2.461 7.305-5.488h-14.63c0 3.027 3.282 5.488 7.325 5.488" style="stroke:none;fill-rule:nonzero;fill:#202020;fill-opacity:1"/></g><g clip-path="url(#g)"><path d="M90.703 86.21c-2.324 0-4.2-2.167-4.2-4.823 0-.723-.429-1.192-1.054-1.192s-1.054.47-1.054 1.192c0 1.445.43 2.773 1.054 3.867-1.894 1.328-5.683 3.379-11.562 3.379-8.614 0-12.813-4.473-12.91-4.473-.43-.469-1.055-.469-1.465 0a1.28 1.28 0 0 0 0 1.7c.195.234 4.824 5.175 14.375 5.175 6.62 0 10.937-2.402 12.93-3.984 1.035.976 2.402 1.582 3.886 1.582.625 0 1.035-.488 1.035-1.211s-.41-1.211-1.035-1.211m0 0" style="stroke:none;fill-rule:nonzero;fill:#000;fill-opacity:1"/></g></svg>