<svg xmlns="http://www.w3.org/2000/svg" width="150" height="150" version="1.0"><defs><clipPath id="a"><path d="M53 1.063h6V20h-6Zm0 0"/></clipPath><clipPath id="b"><path d="M4.563 50H23v5H4.563Zm0 0"/></clipPath><clipPath id="c"><path d="M89 50h18.605v5H89Zm0 0"/></clipPath><clipPath id="d"><path d="M49 106h14v4.824H49Zm0 0"/></clipPath><clipPath id="e"><path d="M40.73 61.926h30.614v8.96H40.73Zm0 0"/></clipPath></defs><g clip-path="url(#a)"><path fill="#009cff" d="M55.996 19.477a2.286 2.286 0 0 0 2.285-2.286V3.351a2.28 2.28 0 0 0-2.285-2.28 2.28 2.28 0 0 0-2.281 2.28v13.84a2.28 2.28 0 0 0 2.281 2.286"/></g><path fill="#009cff" d="M29.414 29.148a2.28 2.28 0 0 0 1.613.668 2.28 2.28 0 0 0 1.618-.668c.89-.89.89-2.335 0-3.23l-9.786-9.785c-.89-.89-2.34-.89-3.23 0a2.28 2.28 0 0 0 0 3.23z"/><g clip-path="url(#b)"><path fill="#009cff" d="M22.969 52.504a2.286 2.286 0 0 0-2.285-2.285H6.848a2.286 2.286 0 0 0 0 4.57h13.836a2.286 2.286 0 0 0 2.285-2.285"/></g><path fill="#009cff" d="m29.414 75.86-9.785 9.78a2.285 2.285 0 1 0 3.23 3.235l9.786-9.785c.89-.895.89-2.34 0-3.23a2.28 2.28 0 0 0-3.23 0M82.582 75.86a2.28 2.28 0 0 0-3.23 0c-.891.89-.891 2.335 0 3.23l9.785 9.785a2.28 2.28 0 0 0 1.617.668c.582 0 1.168-.223 1.613-.668.89-.895.89-2.34 0-3.234z"/><g clip-path="url(#c)"><path fill="#009cff" d="M105.148 50.219h-13.84a2.28 2.28 0 0 0-2.28 2.285 2.28 2.28 0 0 0 2.28 2.285h13.84a2.286 2.286 0 0 0 0-4.57"/></g><path fill="#009cff" d="M80.969 29.816c.582 0 1.168-.222 1.613-.668l9.785-9.785c.89-.89.89-2.336 0-3.23-.89-.89-2.34-.89-3.23 0l-9.785 9.785c-.891.895-.891 2.34 0 3.23a2.28 2.28 0 0 0 1.617.668M55.996 36.055A16.52 16.52 0 0 0 44.23 40.93a16.54 16.54 0 0 0-4.878 11.77 2.282 2.282 0 1 1-4.567 0c0-2.864.559-5.641 1.668-8.259a21.1 21.1 0 0 1 4.543-6.742 21.2 21.2 0 0 1 6.742-4.547 21.1 21.1 0 0 1 8.258-1.668 2.286 2.286 0 0 1 0 4.57m.43-11.684c-15.297-.234-27.957 12.133-28.067 27.434a27.53 27.53 0 0 0 6.16 17.593c3.454 4.258 5.961 9.207 7.504 14.47 1.45 4.945 3.028 9.816 8.18 9.816h11.59c5.152 0 6.73-4.871 8.18-9.817l.043-.144c1.546-5.282 4.152-10.184 7.59-14.485a27.5 27.5 0 0 0 6.03-17.234c0-15.121-12.144-27.406-27.21-27.633"/><path fill="gray" d="M45.879 95.715h20.234a1.632 1.632 0 1 0 0-3.266H45.88c-.899 0-1.629.73-1.629 1.633 0 .902.73 1.633 1.629 1.633M66.113 97.02H45.88a1.631 1.631 0 0 0 0 3.261h20.234a1.631 1.631 0 1 0 0-3.261M66.113 101.59H45.88a1.63 1.63 0 0 0 0 3.262h20.234a1.632 1.632 0 1 0 0-3.262"/><g clip-path="url(#d)"><path fill="gray" d="M55.996 110.922c3.453 0 6.25-2.102 6.25-4.7H49.75c0 2.598 2.797 4.7 6.246 4.7"/></g><g clip-path="url(#e)"><path d="M70.36 66.902c-2.165 0-3.938-1.789-3.938-3.972 0-.598-.395-.996-.984-.996-.59 0-.985.398-.985.996 0 1.191.395 2.28.984 3.175-1.769 1.094-5.316 2.782-10.828 2.782-8.07 0-12.007-3.676-12.105-3.676a.95.95 0 0 0-1.379 0 .965.965 0 0 0 0 1.39c.195.2 4.527 4.274 13.484 4.274 6.203 0 10.239-1.988 12.11-3.277a5.82 5.82 0 0 0 3.64 1.289c.59 0 .985-.395.985-.992 0-.598-.395-.993-.985-.993m0 0"/></g></svg>