<svg xmlns="http://www.w3.org/2000/svg" xmlns:xlink="http://www.w3.org/1999/xlink" width="40" zoomAndPan="magnify" viewBox="0 0 30 30.000001" height="40" preserveAspectRatio="xMidYMid meet" version="1.0"><defs><clipPath id="4aded8e69f"><path d="M 9.023438 7.390625 L 20.976562 7.390625 L 20.976562 19.347656 L 9.023438 19.347656 Z M 9.023438 7.390625 " clip-rule="nonzero"/></clipPath><clipPath id="e80dd0d863"><path d="M 15 7.390625 C 11.699219 7.390625 9.023438 10.066406 9.023438 13.367188 C 9.023438 16.667969 11.699219 19.347656 15 19.347656 C 18.300781 19.347656 20.976562 16.667969 20.976562 13.367188 C 20.976562 10.066406 18.300781 7.390625 15 7.390625 Z M 15 7.390625 " clip-rule="nonzero"/></clipPath><clipPath id="0fc660a439"><path d="M 14 1.664062 L 16 1.664062 L 16 6 L 14 6 Z M 14 1.664062 " clip-rule="nonzero"/></clipPath><clipPath id="af307d0ecb"><path d="M 2.964844 13 L 8 13 L 8 15 L 2.964844 15 Z M 2.964844 13 " clip-rule="nonzero"/></clipPath><clipPath id="86e0498579"><path d="M 22 13 L 26.917969 13 L 26.917969 15 L 22 15 Z M 22 13 " clip-rule="nonzero"/></clipPath><clipPath id="788dbc369f"><path d="M 13 26 L 17 26 L 17 27.066406 L 13 27.066406 Z M 13 26 " clip-rule="nonzero"/></clipPath><clipPath id="571fbf23ea"><path d="M 11.816406 16.035156 L 18.347656 16.035156 L 18.347656 18.210938 L 11.816406 18.210938 Z M 11.816406 16.035156 " clip-rule="nonzero"/></clipPath></defs><g clip-path="url(#4aded8e69f)"><g clip-path="url(#e80dd0d863)"><path fill="#ffffff" d="M 9.023438 7.390625 L 20.976562 7.390625 L 20.976562 19.347656 L 9.023438 19.347656 Z M 9.023438 7.390625 " fill-opacity="1" fill-rule="nonzero"/></g></g><g clip-path="url(#0fc660a439)"><path fill="#009cff" d="M 15 5.96875 C 15.292969 5.96875 15.53125 5.730469 15.53125 5.433594 L 15.53125 2.199219 C 15.53125 1.902344 15.292969 1.664062 15 1.664062 C 14.703125 1.664062 14.464844 1.902344 14.464844 2.199219 L 14.464844 5.433594 C 14.464844 5.730469 14.703125 5.96875 15 5.96875 " fill-opacity="1" fill-rule="nonzero"/></g><path fill="#009cff" d="M 8.78125 8.230469 C 8.882812 8.335938 9.019531 8.386719 9.15625 8.386719 C 9.292969 8.386719 9.429688 8.335938 9.535156 8.230469 C 9.746094 8.023438 9.746094 7.683594 9.535156 7.476562 L 7.246094 5.1875 C 7.039062 4.976562 6.699219 4.976562 6.492188 5.1875 C 6.28125 5.394531 6.28125 5.734375 6.492188 5.941406 L 8.78125 8.230469 " fill-opacity="1" fill-rule="nonzero"/><g clip-path="url(#af307d0ecb)"><path fill="#009cff" d="M 7.273438 13.695312 C 7.273438 13.398438 7.035156 13.160156 6.738281 13.160156 L 3.5 13.160156 C 3.207031 13.160156 2.964844 13.398438 2.964844 13.695312 C 2.964844 13.988281 3.207031 14.230469 3.5 14.230469 L 6.738281 14.230469 C 7.035156 14.230469 7.273438 13.988281 7.273438 13.695312 " fill-opacity="1" fill-rule="nonzero"/></g><path fill="#009cff" d="M 8.78125 19.160156 L 6.492188 21.449219 C 6.28125 21.65625 6.28125 21.996094 6.492188 22.203125 C 6.59375 22.308594 6.730469 22.359375 6.867188 22.359375 C 7.003906 22.359375 7.140625 22.308594 7.246094 22.203125 L 9.535156 19.914062 C 9.746094 19.707031 9.746094 19.367188 9.535156 19.160156 C 9.328125 18.949219 8.988281 18.949219 8.78125 19.160156 " fill-opacity="1" fill-rule="nonzero"/><path fill="#009cff" d="M 21.21875 19.160156 C 21.007812 18.949219 20.671875 18.949219 20.460938 19.160156 C 20.253906 19.367188 20.253906 19.707031 20.460938 19.914062 L 22.75 22.203125 C 22.855469 22.308594 22.992188 22.359375 23.128906 22.359375 C 23.265625 22.359375 23.402344 22.308594 23.507812 22.203125 C 23.714844 21.996094 23.714844 21.65625 23.507812 21.449219 L 21.21875 19.160156 " fill-opacity="1" fill-rule="nonzero"/><g clip-path="url(#86e0498579)"><path fill="#009cff" d="M 26.496094 13.160156 L 23.257812 13.160156 C 22.964844 13.160156 22.726562 13.398438 22.726562 13.695312 C 22.726562 13.988281 22.964844 14.230469 23.257812 14.230469 L 26.496094 14.230469 C 26.792969 14.230469 27.03125 13.988281 27.03125 13.695312 C 27.03125 13.398438 26.792969 13.160156 26.496094 13.160156 " fill-opacity="1" fill-rule="nonzero"/></g><path fill="#009cff" d="M 20.839844 8.386719 C 20.976562 8.386719 21.113281 8.335938 21.21875 8.230469 L 23.507812 5.941406 C 23.714844 5.734375 23.714844 5.394531 23.507812 5.1875 C 23.296875 4.976562 22.960938 4.976562 22.75 5.1875 L 20.460938 7.476562 C 20.253906 7.683594 20.253906 8.023438 20.460938 8.230469 C 20.566406 8.335938 20.703125 8.386719 20.839844 8.386719 " fill-opacity="1" fill-rule="nonzero"/><path fill="#009cff" d="M 15 9.847656 C 13.957031 9.847656 12.980469 10.253906 12.246094 10.988281 C 11.511719 11.722656 11.105469 12.699219 11.105469 13.742188 C 11.105469 14.035156 10.867188 14.273438 10.570312 14.273438 C 10.277344 14.273438 10.035156 14.035156 10.035156 13.742188 C 10.035156 13.070312 10.167969 12.421875 10.425781 11.808594 C 10.675781 11.21875 11.035156 10.6875 11.488281 10.230469 C 11.945312 9.777344 12.476562 9.417969 13.066406 9.167969 C 13.679688 8.910156 14.328125 8.777344 15 8.777344 C 15.292969 8.777344 15.53125 9.019531 15.53125 9.3125 C 15.53125 9.609375 15.292969 9.847656 15 9.847656 Z M 15.097656 7.113281 C 11.519531 7.058594 8.558594 9.953125 8.535156 13.53125 C 8.523438 15.089844 9.0625 16.523438 9.972656 17.648438 C 10.78125 18.644531 11.367188 19.800781 11.730469 21.03125 C 12.070312 22.1875 12.4375 23.328125 13.644531 23.328125 L 16.355469 23.328125 C 17.558594 23.328125 17.929688 22.1875 18.265625 21.03125 L 18.277344 21 C 18.640625 19.761719 19.25 18.617188 20.054688 17.609375 C 20.9375 16.503906 21.464844 15.101562 21.464844 13.578125 C 21.464844 10.042969 18.625 7.167969 15.097656 7.113281 " fill-opacity="1" fill-rule="nonzero"/><path fill="#202020" d="M 12.632812 23.804688 L 17.367188 23.804688 C 17.578125 23.804688 17.746094 23.632812 17.746094 23.421875 C 17.746094 23.210938 17.578125 23.039062 17.367188 23.039062 L 12.632812 23.039062 C 12.421875 23.039062 12.25 23.210938 12.25 23.421875 C 12.25 23.632812 12.421875 23.804688 12.632812 23.804688 " fill-opacity="1" fill-rule="nonzero"/><path fill="#202020" d="M 17.367188 24.109375 L 12.632812 24.109375 C 12.421875 24.109375 12.25 24.28125 12.25 24.492188 C 12.25 24.703125 12.421875 24.871094 12.632812 24.871094 L 17.367188 24.871094 C 17.578125 24.871094 17.746094 24.703125 17.746094 24.492188 C 17.746094 24.28125 17.578125 24.109375 17.367188 24.109375 " fill-opacity="1" fill-rule="nonzero"/><path fill="#202020" d="M 17.367188 25.175781 L 12.632812 25.175781 C 12.421875 25.175781 12.25 25.347656 12.25 25.558594 C 12.25 25.769531 12.421875 25.941406 12.632812 25.941406 L 17.367188 25.941406 C 17.578125 25.941406 17.746094 25.769531 17.746094 25.558594 C 17.746094 25.347656 17.578125 25.175781 17.367188 25.175781 " fill-opacity="1" fill-rule="nonzero"/><g clip-path="url(#788dbc369f)"><path fill="#202020" d="M 15 27.359375 C 15.804688 27.359375 16.460938 26.867188 16.460938 26.261719 L 13.535156 26.261719 C 13.535156 26.867188 14.191406 27.359375 15 27.359375 " fill-opacity="1" fill-rule="nonzero"/></g><g clip-path="url(#571fbf23ea)"><path fill="#000000" d="M 18.140625 17.242188 C 17.675781 17.242188 17.300781 16.808594 17.300781 16.277344 C 17.300781 16.132812 17.214844 16.039062 17.089844 16.039062 C 16.964844 16.039062 16.878906 16.132812 16.878906 16.277344 C 16.878906 16.566406 16.964844 16.832031 17.089844 17.050781 C 16.710938 17.316406 15.953125 17.726562 14.777344 17.726562 C 13.054688 17.726562 12.214844 16.832031 12.195312 16.832031 C 12.109375 16.738281 11.984375 16.738281 11.902344 16.832031 C 11.816406 16.929688 11.816406 17.074219 11.902344 17.171875 C 11.941406 17.21875 12.867188 18.207031 14.777344 18.207031 C 16.101562 18.207031 16.964844 17.726562 17.363281 17.410156 C 17.570312 17.605469 17.84375 17.726562 18.140625 17.726562 C 18.265625 17.726562 18.347656 17.628906 18.347656 17.484375 C 18.347656 17.339844 18.265625 17.242188 18.140625 17.242188 Z M 18.140625 17.242188 " fill-opacity="1" fill-rule="nonzero"/></g></svg>