<?xml version="1.0" encoding="UTF-8"?>
<svg xmlns="http://www.w3.org/2000/svg" xmlns:xlink="http://www.w3.org/1999/xlink" width="40px" height="40px" viewBox="0 0 40 40" version="1.1">
<g id="surface1">
<rect x="0" y="0" width="40" height="40" style="fill:rgb(100%,100%,100%);fill-opacity:1;stroke:none;"/>
<path style=" stroke:none;fill-rule:nonzero;fill:rgb(7.058824%,7.058824%,47.058824%);fill-opacity:1;" d="M 13.382812 12.984375 L 5.339844 12.984375 L 5.339844 19.878906 L 13.382812 19.878906 Z M 5.667969 20.792969 L 5.667969 22.917969 L 9.328125 22.917969 L 5.71875 26.417969 L 9 26.417969 L 12.613281 22.917969 L 17.957031 22.917969 L 17.957031 20.792969 Z M 17.957031 15.074219 L 17.957031 12.65625 L 14.984375 12.65625 L 14.984375 19.878906 L 17.957031 19.878906 L 17.957031 17.445312 L 19.789062 17.445312 L 19.789062 15.074219 Z M 12.121094 24.210938 L 12.121094 26.417969 L 17.957031 26.417969 L 17.957031 24.210938 Z M 8.039062 15.1875 L 10.683594 15.1875 L 10.683594 17.671875 L 8.039062 17.671875 Z M 8.039062 15.1875 "/>
<path style=" stroke:none;fill-rule:nonzero;fill:rgb(7.058824%,7.058824%,47.058824%);fill-opacity:1;" d="M 20.867188 12.984375 L 20.867188 26.417969 L 28.90625 26.417969 L 28.90625 23.882812 L 23.839844 23.882812 L 23.839844 15.515625 L 28.90625 15.515625 L 28.90625 12.984375 Z M 33.480469 18.015625 L 33.480469 12.65625 L 30.507812 12.65625 L 30.507812 26.417969 L 33.480469 26.417969 L 33.480469 20.386719 L 35.3125 20.386719 L 35.3125 18.015625 Z M 33.480469 18.015625 "/>
</g>
</svg>
