<svg xmlns="http://www.w3.org/2000/svg" viewBox="0 0 347.84 100.71"><defs><style>.cls-1{fill:#8cadc6;}.cls-2{fill:#fff;}.cls-3{fill:#d5522b;}.cls-4{fill:#1e224e;}</style></defs><g id="Layer_2" data-name="Layer 2"><g id="Layer_1-2" data-name="Layer 1"><path class="cls-1" d="M33.78,9.63a29,29,0,0,0-.05,56.08,29.13,29.13,0,0,0,.05-56.08Z"/><path class="cls-2" d="M33.16,43.33a5.67,5.67,0,1,0-5.67-5.67,5.67,5.67,0,0,0,5.67,5.67"/><path class="cls-3" d="M18.75,81.77a6.34,6.34,0,0,1,0-8.87v-.06l0,0,2.89-2.92a36.84,36.84,0,0,0,19.25,5.41A37.75,37.75,0,0,0,72.58,17.87l5.52-5.58L66.15.22,60.67,5.75A36.76,36.76,0,0,0,40.89,0,37.74,37.74,0,0,0,9.53,58L6.79,60.77a23.44,23.44,0,0,0,16.36,39.94H69V83.61H23.15A6.16,6.16,0,0,1,18.75,81.77Zm22-73A28.93,28.93,0,1,1,12.19,37.67,28.77,28.77,0,0,1,40.8,8.75Z"/><path class="cls-4" d="M292.35,34.51h9.16V1.21h-9.16Zm-24.5-13.08,3.22-10,3.17,10Zm10.56,13.08h10l-11.9-33.3h-10.8l-11.9,33.3h9.84l1.49-4.59h11.75Z"/><path class="cls-4" d="M107.18,16.83a3.51,3.51,0,1,1-3.74,3.5,3.51,3.51,0,0,1,3.74-3.5M112.06,34h-7.18c-1.15,0-1.92-.63-1.92-1.54a2,2,0,0,1,1.1-1.67,16.05,16.05,0,0,0,3.12.33c6.61,0,11.69-4.65,11.69-10.83a10.51,10.51,0,0,0-1.82-5.94,2.16,2.16,0,0,1,2.1-1.2h1.73V6h-2.11c-3.4,0-5.94,1.72-6.71,4.4a13.49,13.49,0,0,0-4.88-.91c-6.71,0-11.74,4.65-11.74,10.83A10.49,10.49,0,0,0,98.65,28a7.73,7.73,0,0,0-3.45,6.52c0,4.21,3.26,7,8.14,7h7.24a2.91,2.91,0,0,1,3.16,2.4l8-2.21c-1-4.84-4.65-7.66-9.68-7.66"/><path class="cls-4" d="M233.83,0H226V26.27c0,5.57,3.26,8.83,8.73,8.83a15.45,15.45,0,0,0,5-.82l-.87-6.53a9,9,0,0,1-2.49.35c-1.92,0-2.59-.92-2.59-2.69Z"/><path class="cls-4" d="M131.58,0h-7.82V26.27c0,5.57,3.26,8.83,8.74,8.83a15.39,15.39,0,0,0,5-.82l-.86-6.53a9.09,9.09,0,0,1-2.49.35c-1.92,0-2.6-.92-2.6-2.69Z"/><path class="cls-4" d="M209.32,27.57a5.1,5.1,0,0,1-5.23-5.27,5.25,5.25,0,1,1,10.5,0,5.14,5.14,0,0,1-5.27,5.27m5.27-17.49v2a9.92,9.92,0,0,0-6.81-2.59c-6.66,0-11.69,5.51-11.69,12.8s5,12.79,11.69,12.79a9.92,9.92,0,0,0,6.81-2.59v2h7.76V10.08ZM180.52,27.57a5.14,5.14,0,0,1-5.28-5.27,5.25,5.25,0,1,1,10.5,0,5.1,5.1,0,0,1-5.22,5.27M182.05,9.5a9.94,9.94,0,0,0-6.81,2.59V0h-7.76V34.51h7.76v-2a9.94,9.94,0,0,0,6.81,2.59c6.66,0,11.69-5.51,11.69-12.79s-5-12.8-11.69-12.8M151.32,27.57a5.14,5.14,0,0,1-5.27-5.27,5.25,5.25,0,1,1,10.49,0,5.12,5.12,0,0,1-5.22,5.27m0,7.52c7.52,0,13.23-5.51,13.23-12.79S158.84,9.5,151.32,9.5,138.1,15,138.1,22.3s5.65,12.79,13.22,12.79"/><path class="cls-4" d="M339.17,50.53l-4.93,14.33L329.3,50.53h-8.86l9.48,23.91-.43,1A2.55,2.55,0,0,1,327,77.12a4.34,4.34,0,0,1-2.78-1.1l-3,6.09a12,12,0,0,0,7.05,2.54,9,9,0,0,0,8.28-6l11.26-28.08ZM318.9,57.62V50.53h-6V44.64h-7.76v22c0,5.18,2.68,8.91,9,8.91a9.65,9.65,0,0,0,4.79-1.1V67.21a7,7,0,0,1-3.11.81c-2,0-2.88-1-2.88-2.68V57.62ZM293.28,75H301V50.53h-7.76Zm3.88-27.07a4.72,4.72,0,1,0-4.74-4.7,4.6,4.6,0,0,0,4.74,4.7M279.51,50a9.76,9.76,0,0,0-7,2.73V50.53h-7.76V75h7.76V61.79a4.12,4.12,0,0,1,4.41-4.31A3.89,3.89,0,0,1,281,61.7V75h7.76V59.11c0-5.51-3.69-9.15-9.2-9.15M248.45,75.54c7,0,11.69-4.12,11.69-10.35V50.53h-7.76V64.09a3.93,3.93,0,0,1-7.86,0V50.53h-7.76V65.19c0,6.23,4.65,10.35,11.69,10.35M223.45,50a10,10,0,0,0-7.95,3.54A8.45,8.45,0,0,0,208.21,50a9.3,9.3,0,0,0-6.66,2.63V50.53h-7.76V75h7.76V61.41a3.8,3.8,0,0,1,4-3.93,3.53,3.53,0,0,1,3.69,3.83V75H217V61.41a3.76,3.76,0,0,1,4-3.93,3.53,3.53,0,0,1,3.68,3.83V75h7.77V59c0-5.47-3.5-9-9-9m-43.39,0a10,10,0,0,0-7.95,3.54A8.42,8.42,0,0,0,164.83,50a9.26,9.26,0,0,0-6.66,2.63V50.53h-7.76V75h7.76V61.41a3.79,3.79,0,0,1,4-3.93,3.53,3.53,0,0,1,3.69,3.83V75h7.76V61.41a3.76,3.76,0,0,1,4-3.93,3.53,3.53,0,0,1,3.69,3.83V75h7.76V59c0-5.47-3.5-9-9-9M133.77,68A5.27,5.27,0,1,1,139,62.75,5.14,5.14,0,0,1,133.77,68m0,7.52C141.29,75.54,147,70,147,62.75S141.29,50,133.77,50s-13.23,5.51-13.23,12.79,5.65,12.79,13.23,12.79m-25.47,0a13,13,0,0,0,11.31-6l-6.76-4.12a5.28,5.28,0,1,1,0-5.27L119.61,56a13,13,0,0,0-11.31-6c-7.57,0-13.22,5.51-13.22,12.79s5.65,12.79,13.22,12.79"/></g></g></svg>